<?xml version="1.0" standalone="no"?>
<!DOCTYPE svg PUBLIC "-//W3C//DTD SVG 20010904//EN"
 "http://www.w3.org/TR/2001/REC-SVG-20010904/DTD/svg10.dtd">
<svg version="1.0" xmlns="http://www.w3.org/2000/svg"
 width="960.000000pt" height="960.000000pt" viewBox="0 0 960.000000 960.000000"
 preserveAspectRatio="xMidYMid meet">
<metadata>
Created by potrace 1.14, written by Peter Selinger 2001-2017
</metadata>
<g transform="translate(0.000000,960.000000) scale(0.100000,-0.100000)"
fill="#000000" stroke="none">
<path d="M0 4800 l0 -4800 4800 0 4800 0 0 4800 0 4800 -4800 0 -4800 0 0
-4800z m1564 4644 c4 -9 4 -19 2 -21 -8 -8 -26 8 -26 23 0 19 16 18 24 -2z
m5426 -714 c0 -5 -5 -10 -11 -10 -5 0 -7 5 -4 10 3 6 8 10 11 10 2 0 4 -4 4
-10z m-2387 -352 c-13 -12 -26 -19 -29 -15 -4 4 1 14 12 22 29 22 41 18 17 -7z
m157 -128 c0 -5 -7 -10 -16 -10 -8 0 -12 5 -9 10 3 6 10 10 16 10 5 0 9 -4 9
-10z m-465 -80 c11 -18 -5 -32 -21 -19 -11 9 -21 9 -40 0 -20 -9 -25 -9 -21 1
2 7 10 12 16 11 6 -2 11 2 11 7 0 6 11 10 24 10 14 0 28 -4 31 -10z m60 -31
c4 -6 5 -12 2 -15 -7 -7 -37 7 -37 17 0 13 27 11 35 -2z m-41 -40 c-3 -5 -10
-7 -15 -3 -5 3 -7 10 -3 15 3 5 10 7 15 3 5 -3 7 -10 3 -15z m3203 15 c-3 -3
-12 -4 -19 -1 -8 3 -5 6 6 6 11 1 17 -2 13 -5z m-3149 -16 c-4 -12 -38 -21
-38 -9 0 12 12 21 28 21 7 0 12 -5 10 -12z m32 -8 c0 -5 -4 -10 -10 -10 -5 0
-10 5 -10 10 0 6 5 10 10 10 6 0 10 -4 10 -10z m-990 -380 c0 -5 -2 -10 -4
-10 -3 0 -8 5 -11 10 -3 6 -1 10 4 10 6 0 11 -4 11 -10z m-1556 -33 c16 -12
14 -13 -18 -9 -20 2 -33 8 -30 13 8 13 27 11 48 -4z m1700 -32 c3 -8 1 -15 -4
-15 -6 0 -10 7 -10 15 0 8 2 15 4 15 2 0 6 -7 10 -15z m-194 -5 c0 -5 -5 -10
-11 -10 -5 0 -7 5 -4 10 3 6 8 10 11 10 2 0 4 -4 4 -10z m326 -27 c-10 -10
-19 5 -10 18 6 11 8 11 12 0 2 -7 1 -15 -2 -18z m821 -15 c-3 -8 -6 -5 -6 6
-1 11 2 17 5 13 3 -3 4 -12 1 -19z m-967 2 c0 -5 -9 -11 -20 -15 -23 -7 -48 4
-31 14 16 10 51 11 51 1z m195 -20 c3 -5 -1 -10 -9 -10 -9 0 -16 5 -16 10 0 6
4 10 9 10 6 0 13 -4 16 -10z m-1935 -25 c10 -12 10 -15 -3 -15 -8 0 -18 6 -20
13 -4 9 -8 9 -15 -2 -7 -9 -16 -11 -28 -6 -17 7 -16 9 6 15 38 12 47 11 60 -5z
m1618 -1 c2 -1 -6 -8 -18 -14 -21 -11 -50 0 -50 21 0 7 58 2 68 -7z m639 -81
c-11 -10 -27 8 -27 30 l0 21 16 -22 c9 -13 14 -26 11 -29z m1853 -47 c0 -11
-19 -15 -25 -6 -3 5 1 10 9 10 9 0 16 -2 16 -4z m-1945 -46 c3 -5 -2 -27 -11
-47 -22 -48 -21 -46 -34 -38 -7 4 -4 15 9 31 11 14 18 34 16 44 -4 21 9 27 20
10z m-2505 -24 c0 -3 -4 -8 -10 -11 -5 -3 -10 -1 -10 4 0 6 5 11 10 11 6 0 10
-2 10 -4z m2395 -6 c3 -5 1 -10 -4 -10 -6 0 -11 5 -11 10 0 6 2 10 4 10 3 0 8
-4 11 -10z m2262 4 c-3 -3 -12 -4 -19 -1 -8 3 -5 6 6 6 11 1 17 -2 13 -5z
m-3867 -34 c-55 -48 -79 -56 -32 -11 24 23 48 41 55 41 6 0 -4 -14 -23 -30z
m1655 20 c3 -5 1 -10 -4 -10 -6 0 -11 5 -11 10 0 6 2 10 4 10 3 0 8 -4 11 -10z
m-1870 -20 c3 -5 -1 -10 -10 -10 -9 0 -13 5 -10 10 3 6 8 10 10 10 2 0 7 -4
10 -10z m1702 -6 c-3 -3 -12 -4 -19 -1 -8 3 -5 6 6 6 11 1 17 -2 13 -5z m3257
-19 c-6 -16 -24 -21 -24 -7 0 11 11 22 21 22 5 0 6 -7 3 -15z m1906 1 c0 -3
-4 -8 -10 -11 -5 -3 -10 -1 -10 4 0 6 5 11 10 11 6 0 10 -2 10 -4z m-1863 -22
c-3 -3 -12 -4 -19 -1 -8 3 -5 6 6 6 11 1 17 -2 13 -5z m-4877 -18 c0 -2 -7 -7
-16 -10 -8 -3 -12 -2 -9 4 6 10 25 14 25 6z m2853 -133 c-7 -2 -19 -2 -25 0
-7 3 -2 5 12 5 14 0 19 -2 13 -5z m773 -50 c-10 -10 -19 5 -10 18 6 11 8 11
12 0 2 -7 1 -15 -2 -18z m2079 -3 c-3 -5 -10 -10 -16 -10 -5 0 -9 5 -9 10 0 6
7 10 16 10 8 0 12 -4 9 -10z m-2120 -40 c3 -5 1 -10 -4 -10 -6 0 -11 5 -11 10
0 6 2 10 4 10 3 0 8 -4 11 -10z m-1405 -74 c0 -11 -19 -15 -25 -6 -3 5 1 10 9
10 9 0 16 -2 16 -4z m-1097 -33 c-7 -2 -19 -2 -25 0 -7 3 -2 5 12 5 14 0 19
-2 13 -5z m1934 -47 c4 -3 -27 -6 -68 -5 -51 0 -68 3 -54 9 21 9 112 6 122 -4z
m-1847 -66 c17 -11 16 -12 -22 -14 -29 -2 -38 8 -15 17 18 8 21 8 37 -3z m-20
-30 c0 -5 -4 -10 -10 -10 -5 0 -10 5 -10 10 0 6 5 10 10 10 6 0 10 -4 10 -10z
m6010 -12 c0 -16 -3 -19 -11 -11 -6 6 -8 16 -5 22 11 17 16 13 16 -11z m-6040
-3 c0 -8 -7 -15 -16 -15 -14 0 -14 3 -4 15 7 8 14 15 16 15 2 0 4 -7 4 -15z
m95 5 c3 -5 1 -10 -4 -10 -6 0 -11 5 -11 10 0 6 2 10 4 10 3 0 8 -4 11 -10z
m31 -49 c-9 -14 -46 -20 -47 -8 0 7 -5 1 -11 -13 -10 -22 -12 -23 -16 -6 -2
10 2 22 10 27 17 11 71 11 64 0z m-1881 -81 c-3 -5 -12 -7 -20 -3 -21 7 -19
13 6 13 11 0 18 -4 14 -10z m1931 -25 c-21 -16 -32 -13 -21 4 3 6 14 11 23 11
15 -1 15 -2 -2 -15z m431 -31 c-3 -3 -12 -4 -19 -1 -8 3 -5 6 6 6 11 1 17 -2
13 -5z m-352 -114 c3 -5 2 -10 -4 -10 -5 0 -13 5 -16 10 -3 6 -2 10 4 10 5 0
13 -4 16 -10z m-1532 -75 c-3 -9 -8 -14 -10 -11 -3 3 -2 9 2 15 9 16 15 13 8
-4z m7157 -131 c27 -25 42 -48 48 -77 11 -52 1 -73 -38 -82 -21 -5 -30 -12
-30 -27 0 -16 6 -19 38 -18 76 4 72 8 72 -76 0 -58 5 -87 21 -120 24 -46 20
-73 -11 -81 -11 -3 -20 -8 -20 -12 0 -14 37 -61 43 -54 4 3 7 0 7 -8 0 -8 8
-4 20 11 26 33 25 11 -1 -39 -13 -26 -25 -38 -35 -34 -8 3 -14 9 -14 13 0 4
-18 10 -40 13 -22 3 -53 17 -70 31 -17 14 -47 28 -68 32 -44 8 -72 37 -72 75
0 15 -4 31 -10 34 -5 3 -10 25 -10 49 0 34 -5 45 -22 56 -13 7 -45 39 -73 70
l-50 58 -67 1 c-74 1 -83 8 -90 70 -3 40 -6 38 135 65 54 10 95 26 134 50 47
30 67 36 110 36 47 0 58 -4 93 -36z m-832 -106 c6 -6 12 -17 12 -24 0 -20 20
-17 44 5 16 14 43 20 116 25 53 3 101 2 109 -3 9 -6 15 -28 15 -59 1 -28 5
-54 9 -58 4 -4 7 -19 7 -34 0 -27 -18 -41 -67 -55 -50 -14 -18 -34 65 -40 29
-3 51 -11 59 -21 17 -23 17 -27 -7 -54 -19 -22 -19 -24 -3 -51 10 -16 20 -29
24 -29 11 0 29 -51 29 -84 0 -18 -5 -47 -11 -64 -9 -27 -8 -35 10 -58 l22 -27
-32 -33 -31 -32 31 -16 c41 -22 41 -57 1 -93 -39 -34 -38 -49 5 -63 37 -12 45
-29 42 -84 -2 -26 3 -30 42 -42 69 -20 83 -42 80 -124 -4 -82 4 -93 89 -134
32 -15 64 -37 71 -47 27 -45 -61 -119 -141 -119 -20 0 -60 11 -91 25 -55 26
-87 25 -87 -2 0 -7 13 -22 30 -31 35 -20 35 -20 11 -50 -17 -24 -18 -24 -117
-13 -126 14 -138 14 -142 1 -8 -22 -109 -58 -279 -97 -17 -4 -25 2 -38 28 -16
29 -16 35 -1 65 17 37 48 60 103 79 21 7 40 19 44 27 33 75 47 94 77 107 17 8
32 22 32 30 -1 20 -24 51 -38 51 -22 0 -41 46 -48 113 -6 61 -5 71 16 99 22
30 23 47 4 122 -6 24 -2 32 26 56 18 15 30 32 27 37 -3 5 -33 18 -66 28 -63
19 -65 21 -101 113 -7 18 -26 43 -41 57 -40 33 -37 67 11 139 22 32 40 67 40
77 0 20 -38 49 -90 69 -43 17 -70 39 -70 58 0 8 16 32 36 54 l35 40 -46 49
c-32 34 -45 57 -43 72 3 19 11 23 68 28 74 7 129 2 148 -13z m-487 -29 c4 -7
25 -6 66 2 71 15 106 8 120 -24 14 -30 7 -41 -53 -80 -39 -26 -51 -41 -61 -76
-16 -55 -28 -70 -79 -91 -35 -15 -43 -24 -48 -54 -4 -20 -21 -52 -37 -71 -35
-40 -33 -67 9 -89 15 -8 35 -23 45 -34 18 -20 18 -21 -3 -32 -30 -16 -70 -7
-145 35 -71 40 -75 47 -75 152 0 63 -4 80 -36 140 -20 37 -42 75 -50 84 -8 8
-17 30 -20 49 -9 41 14 62 57 53 23 -4 30 -1 40 20 16 35 51 52 77 38 28 -15
73 -13 96 4 16 12 23 12 54 -1 20 -8 39 -19 43 -25z m-3431 -121 c14 0 58 1
98 2 41 1 76 0 78 -3 3 -3 -29 -39 -70 -82 -42 -42 -76 -79 -76 -83 0 -4 11
-20 24 -35 l24 -28 36 38 c20 21 36 43 36 48 0 6 16 21 35 35 20 14 45 40 56
58 24 37 57 49 89 32 17 -9 30 -8 61 4 42 17 96 21 116 8 6 -4 11 -27 10 -52
-2 -43 -4 -46 -70 -90 -94 -62 -193 -178 -207 -244 -6 -27 -18 -64 -26 -82
-16 -34 -16 -34 27 -99 25 -38 53 -68 65 -71 l22 -6 -21 -61 c-11 -34 -37 -89
-59 -123 -21 -34 -38 -64 -38 -68 0 -4 12 -17 26 -29 l25 -22 -21 -58 c-26
-68 -23 -89 10 -97 14 -3 31 -19 39 -35 8 -17 18 -38 23 -47 4 -10 8 -27 8
-37 0 -11 11 -31 25 -45 33 -33 32 -51 -9 -96 -19 -22 -36 -53 -40 -76 -4 -21
-21 -63 -37 -91 -39 -71 -39 -121 1 -167 30 -33 30 -35 21 -102 -9 -64 -9 -69
15 -96 15 -19 24 -42 24 -63 0 -19 5 -46 11 -61 16 -43 4 -69 -51 -109 -27
-20 -50 -41 -50 -46 0 -14 65 -10 96 6 39 20 56 19 84 -5 13 -11 34 -20 47
-20 31 0 30 -22 -6 -90 -53 -101 -65 -118 -98 -134 -18 -9 -33 -20 -33 -25 0
-5 30 -49 67 -98 85 -111 106 -150 92 -174 -7 -14 -21 -19 -48 -19 -21 0 -59
-11 -86 -25 -27 -13 -70 -30 -96 -36 -61 -16 -74 -6 -83 61 -7 51 -24 66 -33
29 -7 -26 -101 -69 -152 -69 -20 0 -54 -7 -77 -14 -27 -10 -75 -14 -145 -12
-102 2 -105 3 -155 39 -59 42 -79 45 -104 17 -19 -22 -68 -40 -107 -40 -27 0
-32 30 -8 50 8 7 22 38 31 69 9 31 21 73 27 94 13 47 39 59 93 46 84 -20 188
-39 192 -34 7 6 -47 75 -59 75 -5 0 -9 6 -9 14 0 15 64 76 80 76 17 0 11 26
-10 45 -11 10 -20 21 -20 24 0 10 47 61 56 61 4 0 18 10 31 22 l23 21 -40 43
c-79 86 -32 177 83 160 34 -5 47 -3 57 9 11 14 6 23 -39 65 -41 39 -53 57 -60
94 -4 25 -15 56 -23 68 -38 61 -48 111 -45 232 3 119 3 120 -25 152 -33 38
-30 54 23 98 29 25 30 28 19 57 -11 27 -10 33 9 59 27 38 27 51 -4 80 -18 17
-25 34 -25 62 0 42 19 67 72 94 62 31 58 52 -18 93 l-49 26 -3 70 c-4 86 7
107 63 124 54 16 87 47 65 62 -8 5 -26 7 -40 5 -14 -2 -39 2 -56 10 l-32 15
24 67 c21 62 22 67 6 72 -9 3 -26 10 -37 17 -17 10 -18 14 -7 38 16 36 17 35
-26 35 -53 0 -71 17 -74 70 l-3 45 -60 -3 c-54 -2 -62 0 -78 23 -11 15 -17 38
-15 57 3 27 11 36 53 57 28 14 52 28 55 31 12 12 69 40 84 40 8 0 22 -13 31
-30 24 -47 44 -52 84 -22 20 15 38 30 41 34 8 11 103 27 125 21 11 -3 31 -5
45 -5z m937 -56 c69 -6 86 -11 110 -33 32 -30 84 -59 107 -59 8 0 34 18 57 40
46 44 84 51 129 25 30 -17 148 -20 220 -4 28 6 54 9 57 6 3 -3 7 -27 8 -53 2
-25 8 -51 14 -57 16 -16 103 -47 114 -40 19 12 -6 -43 -32 -70 -26 -26 -37
-29 -137 -38 -76 -7 -136 -6 -198 2 -100 13 -86 20 -170 -85 l-39 -48 12 -49
c12 -45 11 -52 -9 -84 -12 -19 -32 -43 -46 -54 -21 -16 -24 -27 -24 -80 0 -57
-2 -61 -30 -76 -16 -8 -37 -15 -46 -15 -21 0 -54 -28 -54 -45 0 -7 -6 -18 -14
-24 -8 -7 -17 -23 -20 -37 -4 -14 -21 -41 -39 -60 -36 -39 -104 -153 -113
-189 -3 -13 -14 -31 -25 -41 -21 -19 -25 -44 -8 -61 8 -8 6 -21 -6 -47 -19
-39 -25 -42 -57 -25 -11 6 -30 8 -43 5 -31 -8 -98 -98 -131 -176 -40 -96 -48
-102 -85 -62 -16 17 -36 32 -43 32 -25 0 -35 24 -27 62 6 24 26 54 63 90 79
78 128 142 139 181 5 19 29 56 53 82 35 37 45 57 50 93 16 121 14 115 71 157
42 30 55 46 55 65 0 42 34 93 76 113 97 46 89 35 90 117 2 104 17 132 87 154
33 10 17 33 -45 62 -75 35 -85 60 -42 105 31 32 26 37 -46 41 -42 3 -45 5 -48
34 -2 24 -11 36 -38 50 -19 11 -42 29 -50 42 -14 21 -14 26 1 49 14 20 22 24
43 18 15 -3 64 -9 109 -13z m1400 3 c29 -12 44 -13 69 -5 26 9 39 8 63 -4 16
-9 53 -16 81 -16 28 0 65 -7 82 -16 30 -15 43 -15 126 2 18 3 45 1 62 -6 25
-10 37 -10 71 4 53 21 93 13 119 -25 19 -26 20 -31 6 -50 -8 -12 -49 -43 -90
-70 -83 -53 -96 -71 -74 -97 9 -9 20 -30 25 -47 8 -25 7 -33 -11 -51 -12 -12
-36 -29 -54 -38 l-33 -17 7 -92 c3 -51 9 -96 12 -101 3 -5 0 -6 -6 -2 -15 9
-15 -7 2 -107 13 -78 24 -97 59 -97 22 0 22 -17 -4 -69 -25 -53 -22 -85 10
-89 22 -4 23 -6 17 -58 -4 -31 -1 -72 6 -99 10 -36 10 -49 0 -63 -7 -9 -21
-36 -31 -58 -11 -23 -25 -44 -32 -46 -14 -5 -7 -18 43 -80 20 -25 20 -30 8
-67 -9 -29 -11 -59 -5 -108 14 -112 10 -151 -16 -179 -26 -27 -57 -31 -98 -9
-23 11 -35 12 -59 3 -38 -15 -62 2 -62 43 0 34 -19 38 -72 15 -137 -59 -279
-71 -278 -23 0 7 30 48 66 92 78 96 98 131 96 167 -1 14 -18 71 -37 125 -50
141 -46 213 11 213 30 0 32 5 46 101 l12 83 -64 57 c-52 47 -63 64 -63 89 0
20 7 36 21 46 16 11 20 21 15 47 -8 50 15 67 88 67 32 0 59 4 59 8 0 8 -21 35
-97 126 -51 59 -55 89 -15 105 15 6 40 20 55 30 26 17 27 19 12 35 -9 9 -29
16 -45 16 -37 0 -63 26 -56 56 5 17 -1 28 -25 45 -36 25 -50 56 -38 86 6 16 1
31 -20 60 -57 80 -46 102 36 68z m-5246 -118 c-10 -9 -11 -8 -5 6 3 10 9 15
12 12 3 -3 0 -11 -7 -18z m2391 -69 c-7 -7 -12 -8 -12 -2 0 14 12 26 19 19 2
-3 -1 -11 -7 -17z m-2174 -210 c23 -11 43 -25 43 -31 1 -7 2 -23 3 -37 1 -20
7 -26 32 -30 42 -7 82 -38 99 -76 8 -21 28 -38 57 -52 33 -16 47 -31 57 -57 8
-23 25 -43 52 -58 29 -16 40 -30 45 -54 3 -17 3 -36 0 -42 -11 -18 36 -51 73
-51 57 -1 109 -57 97 -106 -5 -17 -13 -24 -29 -24 -16 0 -39 -18 -71 -55 -26
-30 -58 -58 -72 -61 -13 -3 -24 -10 -24 -14 0 -21 46 -20 106 1 60 21 68 22
92 8 19 -10 29 -26 33 -53 3 -21 12 -42 19 -46 7 -4 14 -25 15 -46 2 -22 8
-54 14 -73 11 -35 4 -57 -23 -81 -13 -10 -16 -34 -16 -107 l0 -95 -49 -49
c-50 -51 -81 -102 -81 -137 0 -17 10 -23 54 -32 64 -13 90 -37 80 -74 -3 -14
-10 -26 -15 -26 -4 0 -8 -33 -7 -72 1 -46 -4 -82 -12 -98 -20 -34 -39 -108
-40 -149 0 -46 -24 -71 -69 -71 -20 0 -54 -10 -76 -21 -25 -14 -56 -21 -81
-20 -57 2 -132 -23 -165 -55 -48 -46 -118 -29 -119 29 0 34 27 83 62 109 26
20 37 37 42 66 3 23 16 50 31 63 32 31 31 45 -5 76 -41 34 -38 58 10 88 33 21
40 31 40 56 0 19 -8 37 -21 48 -23 18 -27 64 -14 138 6 33 4 45 -9 59 -35 35
-46 60 -40 92 4 18 10 32 15 32 5 0 9 6 9 14 0 8 4 16 9 18 4 2 32 29 62 62
51 56 52 59 34 72 -49 35 -55 45 -55 83 0 22 -6 46 -13 53 -36 38 -57 74 -57
99 0 22 -14 43 -62 89 -33 33 -65 60 -71 60 -5 0 -6 20 -2 49 6 46 5 51 -19
66 -19 13 -26 26 -26 51 0 18 5 36 10 39 6 3 10 20 10 37 0 22 -11 41 -40 69
-48 46 -51 75 -16 142 21 39 23 47 11 57 -19 16 -94 -9 -136 -45 -62 -52 -128
-24 -115 49 4 21 1 39 -9 51 -20 27 -19 49 4 69 15 14 43 18 127 21 59 3 109
7 112 10 7 7 52 -5 100 -27z m3269 5 c-9 -9 -20 -13 -24 -9 -4 4 -1 11 7 16
25 16 35 11 17 -7z m726 -20 c-7 -2 -19 -2 -25 0 -7 3 -2 5 12 5 14 0 19 -2
13 -5z m-773 -13 c0 -5 -2 -10 -4 -10 -2 0 -12 -3 -22 -7 -16 -6 -17 -5 -4 10
17 19 30 22 30 7z m-3825 -44 c53 -25 157 -118 169 -150 4 -12 -3 -39 -20 -73
-25 -52 -25 -55 -9 -89 9 -20 14 -41 12 -48 -7 -17 12 -36 35 -36 33 0 40 -34
17 -92 -19 -50 -20 -53 -3 -65 10 -7 28 -13 40 -13 33 0 47 -24 40 -70 -5 -32
-2 -44 14 -60 16 -16 19 -28 14 -63 -5 -32 -2 -51 11 -70 12 -19 15 -37 10
-71 -5 -31 -4 -46 4 -46 6 0 11 -13 11 -30 0 -20 -5 -30 -15 -30 -10 0 -15
-10 -15 -27 0 -16 -3 -57 -6 -93 l-6 -65 51 -22 c47 -20 51 -24 51 -55 0 -19
5 -39 12 -46 17 -17 0 -32 -75 -62 -34 -14 -62 -31 -62 -39 0 -7 25 -22 55
-33 55 -20 114 -58 137 -88 17 -21 16 -72 -1 -96 -13 -17 -12 -22 10 -44 33
-36 40 -80 17 -108 -15 -18 -39 -25 -128 -38 -60 -9 -112 -17 -114 -19 -1 -2
0 -8 4 -14 3 -6 38 -11 79 -11 62 0 78 -4 107 -25 19 -14 49 -34 67 -46 48
-31 58 -55 30 -70 -13 -7 -38 -30 -57 -51 -20 -23 -58 -50 -90 -64 -31 -14
-73 -34 -93 -45 -20 -10 -49 -19 -64 -19 -15 0 -52 -12 -82 -26 -46 -22 -64
-25 -107 -20 -57 6 -146 -21 -177 -54 -34 -36 -107 -72 -133 -66 -19 5 -25 15
-30 50 -8 53 11 96 59 129 18 12 61 45 96 72 71 57 101 69 127 49 25 -19 46
-17 87 7 36 21 47 39 23 39 -11 0 -65 42 -124 97 -16 16 -24 35 -25 65 -3 65
1 111 10 117 4 3 18 21 31 38 23 33 22 42 -9 78 -10 11 -20 43 -24 70 -5 40
-13 57 -41 83 -32 31 -35 38 -35 93 0 37 6 69 15 83 20 30 8 65 -35 98 -31 24
-32 27 -21 60 6 19 25 48 41 63 17 16 30 33 30 38 0 6 -15 28 -33 51 -18 23
-39 60 -45 84 -7 23 -16 42 -21 42 -4 0 -22 14 -39 31 -37 37 -40 63 -12 121
25 52 25 52 -5 82 -27 27 -27 64 1 97 16 18 18 45 5 54 -5 3 -12 1 -16 -5 -12
-19 -47 -10 -73 18 -15 15 -41 34 -59 41 -23 9 -33 20 -35 39 -3 25 -7 27 -62
30 -54 3 -59 5 -70 33 -10 27 -14 30 -43 24 -67 -12 -153 28 -153 72 0 23 50
62 88 68 20 3 71 17 112 30 46 16 98 25 135 25 44 0 67 6 85 20 18 14 41 20
84 20 45 0 65 5 80 19 26 24 76 51 96 51 8 0 38 -11 65 -24z m1683 10 c28 -10
51 -12 78 -6 28 7 47 5 71 -6 20 -10 43 -13 61 -9 17 3 48 -1 73 -9 24 -9 66
-16 92 -16 26 0 63 -6 81 -14 19 -8 50 -13 70 -12 32 1 36 -1 36 -24 0 -27 -4
-32 -88 -95 -28 -21 -52 -44 -52 -51 0 -6 18 -28 40 -48 26 -23 40 -45 40 -60
0 -27 -44 -69 -95 -90 -25 -11 -36 -24 -49 -62 -9 -26 -16 -67 -16 -90 0 -23
-4 -44 -8 -46 -15 -6 -53 -68 -48 -77 4 -5 19 -12 35 -16 16 -3 39 -17 52 -31
23 -25 23 -25 5 -59 -12 -22 -17 -46 -14 -72 7 -55 -14 -93 -52 -93 -35 0 -37
-6 -10 -40 23 -29 28 -128 8 -148 -9 -9 -12 -38 -11 -85 2 -71 2 -72 -36 -112
-30 -31 -40 -50 -44 -85 -3 -25 -8 -56 -12 -70 -4 -18 -1 -32 13 -48 35 -40
47 -80 32 -108 -15 -28 -32 -30 -87 -10 -33 12 -42 12 -58 0 -32 -24 -64 -18
-71 14 -4 15 -11 35 -16 45 -9 18 -11 18 -32 -2 -20 -19 -27 -20 -86 -10 -36
5 -85 15 -110 20 -25 6 -59 13 -77 16 -17 3 -39 13 -49 24 -15 17 -15 20 -1
43 9 13 34 37 55 52 22 15 43 37 48 49 5 11 24 25 43 31 62 20 72 44 65 144
l-7 88 34 10 c19 6 50 14 69 17 19 4 38 9 42 12 8 4 -66 71 -116 106 -31 22
-34 57 -6 82 14 12 20 31 20 59 0 58 9 84 31 91 30 10 22 40 -16 69 -19 15
-35 34 -35 42 0 28 33 73 62 85 26 11 28 15 28 70 0 32 6 79 12 105 11 41 11
47 -5 55 -35 20 -80 160 -58 182 16 16 14 27 -6 27 -41 0 -66 25 -79 75 -18
69 -18 72 14 89 35 19 88 20 140 2z m4522 -26 c-8 -5 -22 -9 -30 -9 -10 0 -8
3 5 9 27 12 43 12 25 0z m-3423 -6 c-3 -3 -12 -4 -19 -1 -8 3 -5 6 6 6 11 1
17 -2 13 -5z m-377 -24 c0 -5 -10 -10 -22 -9 -22 0 -22 1 -3 9 11 5 21 9 23 9
1 1 2 -3 2 -9z m177 -50 c26 -15 49 -19 120 -18 51 1 97 -3 110 -10 12 -7 33
-12 47 -12 41 0 58 -52 35 -103 -7 -16 -26 -29 -53 -37 -60 -18 -126 -53 -126
-67 0 -17 35 -26 70 -18 17 4 45 1 64 -5 29 -9 35 -17 41 -48 3 -21 1 -50 -4
-66 -16 -41 -13 -75 9 -103 25 -32 27 -99 3 -125 -9 -11 -30 -18 -50 -18 -36
0 -59 19 -88 73 -19 34 -35 34 -65 2 -34 -36 -60 -31 -109 19 -24 25 -56 47
-74 50 -67 13 -67 43 0 71 54 23 44 48 -31 80 -36 15 -76 40 -91 55 -22 23
-24 31 -16 53 6 14 19 31 31 37 27 15 25 31 -7 55 -42 32 -53 45 -53 65 0 68
162 116 237 70z m2314 -72 c36 -38 40 -40 56 -26 10 9 46 19 80 23 71 8 91 -3
102 -58 6 -30 9 -32 61 -37 63 -6 121 -37 138 -75 24 -53 9 -143 -30 -177 -19
-16 -20 -21 -8 -28 8 -6 18 -10 22 -10 9 0 38 30 38 40 0 13 60 53 68 45 4 -4
10 -48 13 -98 l5 -91 50 -45 c74 -69 87 -87 79 -110 -3 -12 -19 -28 -35 -36
-39 -20 -81 -110 -74 -157 12 -73 -65 -172 -153 -197 -63 -18 -69 27 -18 123
l35 65 -21 66 c-12 40 -27 69 -40 75 -17 10 -19 17 -13 60 l6 49 -41 7 c-33 5
-43 12 -48 32 -4 18 -1 29 13 39 18 13 18 15 1 46 -11 21 -35 41 -66 55 -26
13 -54 33 -62 44 -19 29 -51 61 -75 74 -15 9 -19 22 -19 59 l0 48 -55 14 c-73
18 -100 37 -100 69 0 14 -12 41 -26 60 -31 40 -28 55 18 77 48 24 57 22 99
-25z m626 26 c-3 -3 -12 -4 -19 -1 -8 3 -5 6 6 6 11 1 17 -2 13 -5z m898 -135
c-10 -15 -25 -10 -19 6 4 8 10 12 15 9 5 -3 7 -10 4 -15z m-1680 -56 c14 -14
25 -31 25 -38 0 -7 7 -15 15 -19 24 -9 18 -31 -18 -67 -18 -19 -36 -42 -40
-52 -12 -31 3 -65 33 -75 23 -8 27 -15 23 -36 -3 -14 -9 -26 -14 -26 -22 0 -5
-60 47 -163 31 -62 60 -115 66 -118 5 -3 32 -4 60 -1 58 6 68 -3 68 -61 0 -21
7 -51 15 -67 9 -16 18 -50 22 -75 5 -41 8 -45 33 -45 29 0 86 -34 104 -62 15
-25 -19 -61 -45 -47 -25 13 -53 -2 -76 -42 -17 -29 -21 -31 -69 -27 -30 3 -63
13 -80 25 -23 17 -39 20 -76 16 -41 -5 -56 -1 -113 31 -85 46 -114 80 -115
129 0 22 -5 38 -12 39 -7 0 -18 2 -24 2 -31 3 -85 43 -94 70 -16 45 -13 116 5
122 22 9 18 30 -10 48 -22 15 -25 23 -25 81 0 35 5 75 11 88 8 18 7 32 -4 58
-21 52 -1 124 47 162 20 16 36 35 36 42 0 7 9 23 19 36 18 23 20 23 38 6 26
-23 35 -22 33 6 -3 36 -1 43 24 70 28 30 53 27 91 -10z m820 11 c-59 -16 -83
-18 -69 -5 5 5 25 11 44 14 67 8 75 5 25 -9z m-102 -21 c-7 -2 -19 -2 -25 0
-7 3 -2 5 12 5 14 0 19 -2 13 -5z m-3046 -141 c-17 -21 -31 3 -16 29 12 23 12
23 19 4 4 -11 3 -26 -3 -33z m4352 -121 c7 -15 23 -39 36 -54 33 -34 31 -71
-5 -132 -27 -47 -28 -51 -12 -68 15 -17 15 -21 -7 -62 -26 -49 -22 -65 17 -65
63 -1 81 -63 38 -132 -24 -39 -24 -38 1 -176 5 -29 2 -33 -28 -46 -31 -13 -37
-12 -94 16 -33 17 -78 46 -99 64 -21 18 -43 31 -48 28 -5 -3 -42 -5 -82 -5
-55 0 -78 -4 -87 -15 -18 -22 -76 -44 -114 -44 -37 0 -45 15 -45 87 0 41 1 42
38 49 46 8 87 29 104 52 7 10 30 28 51 41 20 12 37 26 37 31 0 4 -14 13 -30
20 -42 17 -52 39 -38 84 12 36 13 37 84 51 11 3 27 16 34 31 16 28 46 44 86
44 13 0 24 6 24 13 0 31 23 87 45 111 16 18 25 39 25 61 0 58 48 69 69 16z
m-2596 -78 c-7 -2 -21 -2 -30 0 -10 3 -4 5 12 5 17 0 24 -2 18 -5z m167 -13
c10 -6 2 -7 -25 -3 -49 7 -58 13 -19 13 16 0 36 -5 44 -10z m80 0 c0 -5 -10
-10 -22 -10 -19 0 -20 2 -8 10 19 13 30 13 30 0z m-1923 -28 c7 -9 13 -40 13
-69 0 -47 -3 -55 -30 -75 -18 -13 -30 -31 -30 -44 0 -12 -16 -45 -35 -74 -19
-29 -35 -60 -35 -69 0 -10 13 -30 28 -47 57 -58 49 -141 -18 -198 -36 -29 -66
-23 -72 15 -2 12 -12 27 -23 33 -31 17 -65 59 -71 86 -3 14 -11 36 -19 50 -39
68 -77 165 -73 186 3 20 29 34 97 55 37 12 49 22 67 57 24 46 65 91 99 111 26
14 85 4 102 -17z m148 -102 c-10 -11 -25 -20 -34 -19 -10 0 -8 4 7 9 12 5 25
17 28 25 4 9 9 13 12 10 3 -2 -3 -14 -13 -25z m195 -20 c0 -5 -4 -10 -10 -10
-5 0 -10 5 -10 10 0 6 5 10 10 10 6 0 10 -4 10 -10z m1310 -19 c5 -11 10 -35
10 -55 0 -42 18 -62 70 -77 55 -17 69 -36 76 -108 5 -43 11 -61 19 -57 9 3 14
-18 17 -74 4 -65 8 -82 26 -97 19 -16 20 -23 12 -58 -5 -22 -7 -41 -5 -43 10
-10 74 41 85 68 13 32 21 35 50 20 34 -18 41 -44 26 -94 -12 -38 -12 -47 0
-57 7 -6 17 -8 22 -5 6 3 16 -1 23 -10 10 -12 10 -27 2 -69 -7 -29 -10 -62 -8
-72 2 -10 6 -30 9 -45 3 -14 17 -39 29 -55 13 -15 29 -43 36 -62 16 -50 39
-71 76 -71 33 0 45 13 45 48 0 49 75 70 107 29 12 -16 29 -24 52 -25 46 -1 53
-12 8 -12 -29 0 -37 -4 -37 -19 0 -32 45 -71 83 -71 26 0 44 -9 75 -37 22 -21
57 -49 79 -61 22 -13 52 -39 67 -58 22 -27 25 -38 16 -54 -10 -18 -21 -20
-178 -19 -141 1 -180 -2 -251 -20 -94 -25 -105 -21 -95 34 7 41 -26 86 -49 67
-8 -7 -21 -27 -28 -45 -18 -47 -39 -67 -68 -67 -14 0 -39 -7 -55 -15 -15 -8
-55 -19 -87 -24 -33 -6 -63 -13 -69 -16 -5 -3 -27 10 -48 30 l-39 35 -121 0
-120 0 -17 37 c-17 35 -17 38 0 69 15 28 30 37 97 60 84 28 108 46 139 106 16
31 17 45 10 79 -5 22 -18 51 -28 62 -11 12 -32 47 -46 78 -15 30 -40 68 -57
82 -36 32 -37 46 -8 97 13 21 20 42 16 45 -4 4 -28 0 -54 -9 -26 -9 -51 -16
-56 -16 -13 0 -38 58 -38 90 0 18 -6 33 -15 36 -9 4 -15 20 -15 43 0 20 -4 41
-8 46 -8 11 -58 37 -109 55 -26 10 -33 18 -33 40 0 29 19 47 90 82 35 18 54
45 85 123 18 46 47 75 73 75 10 0 28 14 40 30 26 34 57 39 72 11z m1489 -62
c-25 -16 -31 -10 -24 24 11 50 18 55 29 19 7 -26 6 -36 -5 -43z m-2879 41 c0
-5 -5 -10 -11 -10 -5 0 -7 5 -4 10 3 6 8 10 11 10 2 0 4 -4 4 -10z m-240 -24
c0 -3 -4 -8 -10 -11 -5 -3 -10 -1 -10 4 0 6 5 11 10 11 6 0 10 -2 10 -4z m295
-16 c3 -5 1 -10 -4 -10 -6 0 -11 5 -11 10 0 6 2 10 4 10 3 0 8 -4 11 -10z
m-35 -40 c0 -5 -4 -10 -10 -10 -5 0 -10 5 -10 10 0 6 5 10 10 10 6 0 10 -4 10
-10z m1660 -120 c0 -5 -4 -10 -10 -10 -5 0 -10 5 -10 10 0 6 5 10 10 10 6 0
10 -4 10 -10z m-1490 -54 c0 -3 -4 -8 -10 -11 -5 -3 -10 -1 -10 4 0 6 5 11 10
11 6 0 10 -2 10 -4z m1530 -30 c0 -3 -4 -8 -10 -11 -5 -3 -10 -1 -10 4 0 6 5
11 10 11 6 0 10 -2 10 -4z m-1745 -101 c-6 -90 -30 -149 -63 -153 -29 -4 -28
-19 4 -49 21 -19 25 -30 20 -51 -4 -15 -10 -57 -14 -94 -8 -69 -16 -82 -87
-131 -14 -10 -23 -22 -20 -26 2 -5 -3 -15 -13 -24 -16 -14 -22 -15 -57 -2 -22
8 -56 14 -75 15 -20 0 -54 9 -75 21 -29 15 -62 21 -115 23 -42 1 -81 6 -88 10
-6 4 -16 25 -22 46 -8 31 -17 41 -38 46 -57 14 -82 63 -43 84 11 5 44 10 74
10 49 0 57 3 86 35 39 44 89 65 151 65 48 0 48 0 62 43 13 42 17 45 108 87 8
4 19 20 23 36 11 39 87 83 144 83 l43 1 -5 -75z m2515 45 c0 -5 -5 -10 -11
-10 -5 0 -7 5 -4 10 3 6 8 10 11 10 2 0 4 -4 4 -10z m733 -317 c-13 -2 -35 -2
-50 0 -16 2 -5 4 22 4 28 0 40 -2 28 -4z m-758 -43 c-3 -5 -10 -10 -16 -10 -5
0 -9 5 -9 10 0 6 7 10 16 10 8 0 12 -4 9 -10z m-1350 -60 c3 -5 1 -10 -4 -10
-6 0 -11 5 -11 10 0 6 2 10 4 10 3 0 8 -4 11 -10z m170 -150 c-11 -5 -31 -9
-45 -9 -23 0 -23 1 -5 9 11 5 31 9 45 9 23 0 23 -1 5 -9z m-112 -17 c-7 -2
-19 -2 -25 0 -7 3 -2 5 12 5 14 0 19 -2 13 -5z m2087 -13 c0 -5 -5 -10 -11
-10 -5 0 -7 5 -4 10 3 6 8 10 11 10 2 0 4 -4 4 -10z m-1283 -6 c-3 -3 -12 -4
-19 -1 -8 3 -5 6 6 6 11 1 17 -2 13 -5z m1133 -4 c0 -5 -4 -10 -10 -10 -5 0
-10 5 -10 10 0 6 5 10 10 10 6 0 10 -4 10 -10z m-690 -160 c0 -5 -5 -10 -11
-10 -5 0 -7 5 -4 10 3 6 8 10 11 10 2 0 4 -4 4 -10z m490 -80 c0 -5 -2 -10 -4
-10 -3 0 -8 5 -11 10 -3 6 -1 10 4 10 6 0 11 -4 11 -10z m-4353 -122 c-3 -8
-6 -5 -6 6 -1 11 2 17 5 13 3 -3 4 -12 1 -19z m3433 -117 c0 -14 -28 -33 -40
-26 -15 10 -12 23 8 28 28 8 32 7 32 -2z m985 -12 c-22 -4 -53 -8 -70 -7 l-30
0 30 8 c17 4 48 8 70 8 l40 0 -40 -9z m668 4 c-7 -2 -19 -2 -25 0 -7 3 -2 5
12 5 14 0 19 -2 13 -5z m-796 -19 c-3 -3 -12 -4 -19 -1 -8 3 -5 6 6 6 11 1 17
-2 13 -5z m-517 -64 c0 -5 -7 -7 -15 -4 -8 4 -15 8 -15 10 0 2 7 4 15 4 8 0
15 -4 15 -10z m-353 -16 c-3 -3 -12 -4 -19 -1 -8 3 -5 6 6 6 11 1 17 -2 13 -5z
m-122 -13 c3 -5 1 -12 -5 -16 -5 -3 -10 1 -10 9 0 18 6 21 15 7z m-2685 -71
c0 -5 -7 -10 -16 -10 -8 0 -12 5 -9 10 3 6 10 10 16 10 5 0 9 -4 9 -10z m1987
-16 c-3 -3 -12 -4 -19 -1 -8 3 -5 6 6 6 11 1 17 -2 13 -5z m3576 -21 c-7 -2
-21 -2 -30 0 -10 3 -4 5 12 5 17 0 24 -2 18 -5z m-4259 -12 c6 -9 -67 -31
-100 -31 -27 0 -6 14 39 26 56 15 55 15 61 5z m53 3 c-3 -3 -12 -4 -19 -1 -8
3 -5 6 6 6 11 1 17 -2 13 -5z m-847 -89 c0 -10 -10 -15 -30 -15 -16 0 -30 5
-30 11 0 6 9 9 20 6 11 -3 23 -1 26 4 8 13 14 11 14 -6z m-80 -15 c0 -5 -4
-10 -9 -10 -5 0 -23 -3 -40 -6 -19 -4 -31 -2 -31 4 0 6 15 13 33 15 17 2 35 5
40 5 4 1 7 -2 7 -8z m2130 -30 c-8 -5 -19 -10 -25 -10 -5 0 -3 5 5 10 8 5 20
10 25 10 6 0 3 -5 -5 -10z m-66 -34 c-10 -8 -21 -12 -24 -10 -5 6 21 24 34 24
6 0 1 -6 -10 -14z m-3044 -36 c0 -5 -8 -10 -17 -10 -15 0 -16 2 -3 10 19 12
20 12 20 0z m2877 -52 c-3 -8 -6 -5 -6 6 -1 11 2 17 5 13 3 -3 4 -12 1 -19z
m238 3 c-3 -6 -11 -11 -17 -11 -6 0 -6 6 2 15 14 17 26 13 15 -4z m879 5 c-3
-8 -16 -17 -30 -20 -13 -4 -24 -11 -24 -16 0 -6 -8 -10 -17 -10 -22 0 -8 15
38 39 19 10 35 19 36 20 1 0 0 -5 -3 -13z m-4876 -3 c-10 -2 -28 -2 -40 0 -13
2 -5 4 17 4 22 1 32 -1 23 -4z m3936 -29 l-18 -27 23 13 c22 11 22 10 -4 -23
-26 -33 -30 -34 -59 -24 l-31 11 29 6 c33 6 37 20 9 31 -16 7 -15 8 5 8 12 1
30 10 39 21 24 27 28 17 7 -16z m403 21 c-43 -7 -85 -16 -93 -19 -8 -3 -14 -2
-14 3 0 12 83 29 140 29 36 0 30 -3 -33 -13z m-207 -15 c0 -5 -4 -10 -10 -10
-5 0 -10 5 -10 10 0 6 5 10 10 10 6 0 10 -4 10 -10z m-365 -28 c-7 -8 -35 7
-35 18 0 6 7 6 20 -2 10 -7 17 -14 15 -16z m450 18 c-3 -5 -12 -10 -18 -10 -7
0 -6 4 3 10 19 12 23 12 15 0z m-145 -40 c0 -5 -5 -10 -11 -10 -5 0 -7 5 -4
10 3 6 8 10 11 10 2 0 4 -4 4 -10z m2060 6 c0 -3 -4 -8 -10 -11 -5 -3 -10 -1
-10 4 0 6 5 11 10 11 6 0 10 -2 10 -4z m-2342 -36 c-7 -10 -14 -17 -17 -15 -4
4 18 35 25 35 2 0 -1 -9 -8 -20z m366 5 c-3 -5 -32 -11 -66 -13 -60 -2 -74 8
-20 16 15 2 27 4 28 5 8 7 61 0 58 -8z m2093 -21 c-3 -3 -12 -4 -19 -1 -8 3
-5 6 6 6 11 1 17 -2 13 -5z m-1524 -21 c-3 -7 -6 -13 -8 -13 -2 0 -5 6 -8 13
-3 8 1 14 8 14 7 0 11 -6 8 -14z m-1068 -13 c3 -5 0 -10 -7 -10 -7 0 -23 -3
-35 -6 -13 -4 -23 -2 -23 4 0 18 55 28 65 12z m95 0 c0 -15 -48 -43 -60 -35
-7 4 2 14 22 25 40 23 38 22 38 10z m780 -60 c18 -6 7 -8 -40 -8 -47 0 -58 2
-40 8 14 4 32 8 40 8 8 0 26 -4 40 -8z m-2147 -37 c-7 -2 -19 -2 -25 0 -7 3
-2 5 12 5 14 0 19 -2 13 -5z m-1591 -65 c-7 -7 -12 -8 -12 -2 0 6 3 14 7 17 3
4 9 5 12 2 2 -3 -1 -11 -7 -17z m4163 -17 c-3 -6 -14 -11 -23 -11 -15 1 -15 2
2 15 21 16 32 13 21 -4z m875 -1 c0 -5 -2 -10 -4 -10 -3 0 -8 5 -11 10 -3 6
-1 10 4 10 6 0 11 -4 11 -10z m-1120 -16 c0 -13 6 -15 28 -10 50 13 92 15 92
6 0 -6 -12 -10 -27 -10 -16 0 -55 -9 -88 -20 -80 -27 -135 -36 -135 -21 0 6
10 11 23 11 13 0 32 7 43 15 10 8 27 15 36 15 11 0 15 5 12 15 -4 8 -1 15 5
15 6 0 11 -7 11 -16z m1215 6 c13 -5 14 -9 5 -9 -8 0 -24 4 -35 9 -13 5 -14 9
-5 9 8 0 24 -4 35 -9z m45 -10 c0 -5 -2 -10 -4 -10 -3 0 -8 5 -11 10 -3 6 -1
10 4 10 6 0 11 -4 11 -10z m345 0 c-3 -5 -12 -10 -18 -10 -7 0 -6 4 3 10 19
12 23 12 15 0z m-3635 -14 c0 -11 -19 -15 -25 -6 -3 5 1 10 9 10 9 0 16 -2 16
-4z m-2590 -36 c0 -5 -4 -10 -10 -10 -5 0 -10 5 -10 10 0 6 5 10 10 10 6 0 10
-4 10 -10z m4465 -9 c-6 -5 -32 -12 -60 -15 l-50 -5 55 13 c30 8 57 14 60 15
2 0 0 -3 -5 -8z m-646 -48 c0 -25 -1 -25 -8 -8 -5 11 -7 23 -4 28 8 14 13 7
12 -20z m51 -3 c0 -11 -4 -20 -10 -20 -5 0 -10 9 -10 20 0 11 5 20 10 20 6 0
10 -9 10 -20z m170 0 c-14 -4 -47 -8 -75 -8 -43 0 -46 1 -20 8 17 4 50 8 75 8
37 0 40 -2 20 -8z m-400 -21 c0 -6 -4 -7 -10 -4 -5 3 -10 11 -10 16 0 6 5 7
10 4 6 -3 10 -11 10 -16z m60 -5 c0 -2 -11 -4 -25 -4 -14 0 -25 4 -25 9 0 4
11 6 25 3 14 -2 25 -6 25 -8z m73 -1 c-7 -2 -19 -2 -25 0 -7 3 -2 5 12 5 14 0
19 -2 13 -5z m-2620 -50 c-7 -2 -21 -2 -30 0 -10 3 -4 5 12 5 17 0 24 -2 18
-5z m3987 -13 c-8 -5 -26 -9 -40 -9 l-25 1 25 8 c14 4 32 8 40 9 13 1 13 0 0
-9z m-3050 -20 c-8 -5 -19 -10 -25 -10 -5 0 -3 5 5 10 8 5 20 10 25 10 6 0 3
-5 -5 -10z m3825 0 c3 -5 1 -10 -4 -10 -6 0 -11 5 -11 10 0 6 2 10 4 10 3 0 8
-4 11 -10z m-4635 -4 c0 -3 -4 -8 -10 -11 -5 -3 -10 -1 -10 4 0 6 5 11 10 11
6 0 10 -2 10 -4z m1480 -66 c0 -5 -5 -10 -11 -10 -5 0 -7 5 -4 10 3 6 8 10 11
10 2 0 4 -4 4 -10z m4837 -6 c-3 -3 -12 -4 -19 -1 -8 3 -5 6 6 6 11 1 17 -2
13 -5z m-5190 -70 c-3 -3 -12 -4 -19 -1 -8 3 -5 6 6 6 11 1 17 -2 13 -5z m493
-90 c-25 -7 -52 -11 -60 -7 -10 4 -1 9 25 13 68 12 82 9 35 -6z m77 0 c-3 -3
-12 -4 -19 -1 -8 3 -5 6 6 6 11 1 17 -2 13 -5z m-1280 -191 c3 -7 -3 -9 -15
-6 -11 2 -29 0 -40 -6 -15 -8 -23 -7 -31 3 -6 7 -8 16 -4 20 11 11 86 2 90
-11z m516 -260 c-7 -2 -19 -2 -25 0 -7 3 -2 5 12 5 14 0 19 -2 13 -5z m-1023
-43 c13 -8 13 -10 -2 -10 -9 0 -20 5 -23 10 -8 13 5 13 25 0z m5780 -95 c0 -2
-9 -9 -20 -15 -12 -6 -20 -7 -20 -1 0 5 8 12 18 14 9 3 18 5 20 6 1 0 2 -1 2
-4z m-20 -165 c-8 -5 -24 -9 -35 -9 -16 1 -16 2 5 9 35 11 48 11 30 0z m-1305
-10 c3 -5 1 -10 -4 -10 -6 0 -11 5 -11 10 0 6 2 10 4 10 3 0 8 -4 11 -10z
m1214 -16 c-29 -16 -39 -17 -39 -4 0 6 7 10 15 10 8 0 15 4 15 10 0 5 7 7 16
3 14 -5 12 -8 -7 -19z m-64 -25 c-4 -5 -16 -9 -28 -9 -21 1 -21 1 -3 15 20 15
41 11 31 -6z m-1475 -148 c0 -6 -4 -13 -10 -16 -5 -3 -10 1 -10 9 0 9 5 16 10
16 6 0 10 -4 10 -9z m1070 -191 c-8 -5 -19 -10 -25 -10 -5 0 -3 5 5 10 8 5 20
10 25 10 6 0 3 -5 -5 -10z m35 0 c3 -5 1 -10 -4 -10 -6 0 -11 5 -11 10 0 6 2
10 4 10 3 0 8 -4 11 -10z m-5578 -246 c-3 -3 -12 -4 -19 -1 -8 3 -5 6 6 6 11
1 17 -2 13 -5z m1650 -280 c-3 -3 -12 -4 -19 -1 -8 3 -5 6 6 6 11 1 17 -2 13
-5z m-320 -120 c-3 -3 -12 -4 -19 -1 -8 3 -5 6 6 6 11 1 17 -2 13 -5z"/>
</g>
</svg>
